<?xml version="1.0" encoding="utf-8"?>
<!-- Generator: Adobe Illustrator 25.2.3, SVG Export Plug-In . SVG Version: 6.00 Build 0)  -->
<svg version="1.1" id="Слой_1" xmlns="http://www.w3.org/2000/svg" xmlns:xlink="http://www.w3.org/1999/xlink" x="0px" y="0px"
	 viewBox="0 0 4187.96 1341.94" style="enable-background:new 0 0 4187.96 1341.94;" xml:space="preserve">
<style type="text/css">
	.st0{fill:#FFFFFF;}
</style>
<g>
	<path class="st0" d="M859.93,750.68c0-78.34-18.47-150.37-55.5-216.27c-36.94-65.8-88.06-117.42-153.38-155.04
		c-65.22-37.52-138.7-56.28-220.25-56.28c-80.58,0-153.38,18.76-218.7,56.28c-65.22,37.62-116.93,89.52-155.03,155.91
		S0,675.05,0,755.54c0,80.58,18.95,153.67,57.06,219.48s89.81,117.51,155.03,155.03c65.32,37.52,138.12,56.28,218.7,56.28
		c109.84,0,199.84-27.12,270.02-81.55c70.18-54.43,118.88-120.72,146.09-199.07H660.86c-18.56,34.8-47.34,63.86-86.51,87.29
		c-39.17,23.43-86.99,35.09-143.56,35.09c-41.41,0-80-10.11-115.86-30.23c-35.96-20.12-65.61-47.53-88.94-82.43
		c-23.43-34.8-37.81-73.38-43.25-115.86h677.19V750.68z M187.6,673.98c8.75-34.8,23.91-66.97,45.68-96.33
		c21.77-29.35,49.77-52.68,84.08-70.18c34.21-17.4,72.03-26.05,113.43-26.05c42.38,0,80.77,8.65,114.99,26.05
		c34.31,17.49,62.01,40.82,83.3,70.18c21.19,29.35,34.51,61.53,39.95,96.33H187.6z"/>
	<path class="st0" d="M2315.4,31.88C2293.63,10.59,2267.58,0,2237.06,0c-29.35,0-54.92,10.59-76.69,31.88
		c-21.77,21.19-32.56,45.98-32.56,74.16c0,28.39,10.79,53.08,32.56,74.26c21.77,21.29,47.34,31.88,76.69,31.88
		c30.52,0,56.57-10.6,78.34-31.88c21.77-21.19,32.66-45.88,32.66-74.26C2348.06,77.85,2337.17,53.07,2315.4,31.88z M2148.99,342.72
		v824.06h177.88V342.72H2148.99z"/>
	<path class="st0" d="M3068.31,873.05c-15.26,43.55-42.38,80.19-81.55,110.13c-39.17,29.94-88.16,44.91-146.87,44.91
		c-44.61,0-85.63-11.47-123.25-34.31c-37.52-22.84-67.16-54.92-88.94-96.23c-21.77-41.31-32.56-88.65-32.56-142.01
		c0-54.34,10.79-102.25,32.56-143.56c21.77-41.31,51.42-73.48,88.94-96.33c37.62-22.84,78.64-34.21,123.25-34.21
		c57.64,0,105.46,14.1,143.56,42.38c38.1,28.29,65.32,63.09,81.65,104.49h182.74c-15.26-54.43-39.75-104.49-73.39-150.17
		c-33.73-45.69-78.93-82.91-135.5-111.78c-56.57-28.77-122.96-43.26-199.07-43.26c-79.41,0-151.73,19.05-217.05,57.16
		c-65.22,38.1-116.64,90-154.16,155.81c-37.62,65.8-56.38,138.99-56.38,219.48c0,80.58,18.76,153.38,56.38,218.7
		c37.52,65.22,88.94,116.93,154.16,155.03c65.32,38.01,137.64,57.06,217.05,57.06c78.34,0,146.09-14.67,203.15-44.03
		c57.15-29.35,102.84-67.75,137.05-115.09c34.31-47.24,57.93-98.66,71.05-154.16H3068.31z"/>
	<path class="st0" d="M4187.96,750.68c0-78.34-18.47-150.37-55.5-216.27c-36.94-65.8-88.06-117.42-153.38-155.04
		c-65.22-37.52-138.7-56.28-220.25-56.28c-80.58,0-153.38,18.76-218.7,56.28c-65.22,37.62-116.93,89.52-155.03,155.91
		c-38.1,66.39-57.06,139.77-57.06,220.26c0,80.58,18.95,153.67,57.06,219.48c38.1,65.8,89.81,117.51,155.03,155.03
		c65.32,37.52,138.12,56.28,218.7,56.28c109.84,0,199.84-27.12,270.02-81.55c70.18-54.43,118.88-120.72,146.09-199.07h-186.04
		c-18.47,34.8-47.34,63.86-86.51,87.29c-39.17,23.43-86.99,35.09-143.56,35.09c-41.41,0-80-10.11-115.86-30.23
		c-35.87-20.12-65.61-47.53-88.94-82.43c-23.43-34.8-37.81-73.38-43.25-115.86h677.19V750.68z M3515.63,673.98
		c8.75-34.8,23.91-66.97,45.68-96.33c21.77-29.35,49.77-52.68,84.08-70.18c34.21-17.4,72.03-26.05,113.43-26.05
		c42.38,0,80.77,8.65,114.99,26.05c34.31,17.49,62.01,40.82,83.2,70.18c21.29,29.35,34.6,61.53,40.05,96.33H3515.63z"/>
	<g>
		<path class="st0" d="M2066.76,973.75v194.5h-180.99v-194.5c0-79.22-64.44-143.56-143.76-143.56
			c-79.22,0-143.76,64.35-143.76,143.56v43.45c0,121.69-67.26,232.21-175.64,288.49c-45.59,23.72-97.1,36.26-149.01,36.26
			c-89.23,0-175.54-37.52-236.68-102.84c-56.67-60.46-87.97-139.19-87.97-221.91V0h180.99v1017.2
			c0,79.32,64.44,143.85,143.66,143.85c79.32,0,143.66-64.54,143.66-143.85v-43.45c0-121.59,67.36-232.11,175.74-288.39
			c45.68-23.72,97.2-36.16,149.01-36.16C1921.06,649.2,2066.76,794.8,2066.76,973.75z"/>
	</g>
</g>
</svg>
