<?xml version="1.0" encoding="utf-8"?>
<!-- Generator: Adobe Illustrator 25.2.3, SVG Export Plug-In . SVG Version: 6.00 Build 0)  -->
<svg version="1.1" id="Слой_1" xmlns="http://www.w3.org/2000/svg" xmlns:xlink="http://www.w3.org/1999/xlink" x="0px" y="0px"
	 viewBox="0 0 3844.81 1231.99" style="enable-background:new 0 0 3844.81 1231.99;" xml:space="preserve">
<style type="text/css">
	.st0{fill:#BBB2EE;}
</style>
<g>
	<path class="st0" d="M789.47,689.17c0-71.92-16.95-138.05-50.95-198.55c-33.91-60.41-80.85-107.8-140.81-142.33
		c-59.88-34.44-127.34-51.67-202.21-51.67c-73.98,0-140.81,17.22-200.78,51.67c-59.88,34.54-107.35,82.19-142.33,143.13
		S0,619.74,0,693.63c0,73.98,17.4,141.08,52.38,201.49s82.45,107.88,142.33,142.33c59.97,34.45,126.8,51.67,200.78,51.67
		c100.84,0,183.47-24.9,247.9-74.87c64.43-49.97,109.14-110.83,134.12-182.75h-170.8c-17.04,31.95-43.46,58.63-79.42,80.13
		c-35.96,21.51-79.87,32.22-131.8,32.22c-38.01,0-73.44-9.28-106.37-27.76c-33.02-18.47-60.23-43.63-81.65-75.67
		c-21.51-31.95-34.71-67.37-39.71-106.37h621.7V689.17z M172.22,618.76c8.03-31.95,21.95-61.48,41.94-88.43
		c19.99-26.95,45.69-48.37,77.19-64.43c31.41-15.97,66.12-23.92,104.14-23.92c38.91,0,74.15,7.94,105.57,23.92
		c31.5,16.06,56.93,37.48,76.48,64.43c19.45,26.95,31.68,56.49,36.68,88.43H172.22z"/>
	<path class="st0" d="M2125.68,29.27C2105.69,9.73,2081.78,0,2053.76,0c-26.95,0-50.42,9.73-70.41,29.27
		c-19.99,19.45-29.89,42.21-29.89,68.09c0,26.06,9.91,48.73,29.89,68.18c19.99,19.54,43.46,29.27,70.41,29.27
		c28.02,0,51.94-9.73,71.92-29.27c19.99-19.45,29.98-42.12,29.98-68.18C2155.67,71.48,2145.67,48.72,2125.68,29.27z M1972.91,314.64
		v756.54h163.3V314.64H1972.91z"/>
	<path class="st0" d="M2816.9,801.51c-14.01,39.98-38.91,73.62-74.87,101.1c-35.96,27.49-80.94,41.23-134.83,41.23
		c-40.96,0-78.62-10.53-113.15-31.5c-34.44-20.97-61.66-50.42-81.65-88.34c-19.99-37.93-29.89-81.38-29.89-130.37
		c0-49.89,9.91-93.88,29.89-131.8c19.99-37.93,47.21-67.46,81.65-88.43c34.53-20.97,72.19-31.41,113.15-31.41
		c52.92,0,96.82,12.94,131.8,38.91c34.98,25.97,59.97,57.92,74.96,95.93h167.76c-14.01-49.97-36.5-95.93-67.37-137.87
		c-30.96-41.94-72.46-76.12-124.39-102.62c-51.93-26.41-112.88-39.71-182.75-39.71c-72.91,0-139.3,17.49-199.26,52.47
		c-59.88,34.98-107.08,82.63-141.53,143.04c-34.53,60.41-51.76,127.61-51.76,201.49c0,73.98,17.22,140.81,51.76,200.78
		c34.44,59.88,81.65,107.35,141.53,142.33c59.97,34.89,126.36,52.38,199.26,52.38c71.92,0,134.12-13.47,186.5-40.42
		c52.47-26.95,94.41-62.2,125.82-105.66c31.5-43.37,53.18-90.57,65.23-141.53H2816.9z"/>
	<path class="st0" d="M3844.81,689.17c0-71.92-16.95-138.05-50.95-198.55c-33.91-60.41-80.85-107.8-140.81-142.33
		c-59.88-34.44-127.34-51.67-202.21-51.67c-73.98,0-140.81,17.22-200.78,51.67c-59.88,34.54-107.35,82.19-142.33,143.13
		c-34.98,60.95-52.38,128.32-52.38,202.21c0,73.98,17.4,141.08,52.38,201.49c34.98,60.41,82.45,107.88,142.33,142.33
		c59.97,34.45,126.8,51.67,200.78,51.67c100.84,0,183.47-24.9,247.9-74.87c64.43-49.97,109.14-110.83,134.12-182.75h-170.8
		c-16.95,31.95-43.46,58.63-79.42,80.13c-35.96,21.51-79.87,32.22-131.8,32.22c-38.01,0-73.44-9.28-106.37-27.76
		c-32.93-18.47-60.23-43.63-81.65-75.67c-21.51-31.95-34.71-67.37-39.71-106.37h621.7V689.17z M3227.57,618.76
		c8.03-31.95,21.95-61.48,41.94-88.43c19.99-26.95,45.69-48.37,77.19-64.43c31.41-15.97,66.12-23.92,104.14-23.92
		c38.91,0,74.15,7.94,105.57,23.92c31.5,16.06,56.93,37.48,76.39,64.43c19.54,26.95,31.77,56.49,36.77,88.43H3227.57z"/>
	<g>
		<path class="st0" d="M1897.42,893.96v178.56h-166.16V893.96c0-72.73-59.16-131.8-131.98-131.8c-72.73,0-131.98,59.08-131.98,131.8
			v39.89c0,111.72-61.75,213.19-161.25,264.85c-41.85,21.77-89.15,33.28-136.8,33.28c-81.92,0-161.16-34.45-217.29-94.41
			c-52.02-55.51-80.76-127.79-80.76-203.73V0h166.16v933.85c0,72.82,59.16,132.07,131.89,132.07c72.82,0,131.89-59.25,131.89-132.07
			v-39.89c0-111.63,61.84-213.09,161.34-264.76c41.94-21.77,89.24-33.19,136.8-33.19C1763.65,596.01,1897.42,729.68,1897.42,893.96z
			"/>
	</g>
</g>
</svg>
