<?xml version="1.0" encoding="utf-8"?>
<!-- Generator: Adobe Illustrator 25.2.3, SVG Export Plug-In . SVG Version: 6.00 Build 0)  -->
<svg version="1.1" id="Слой_1" xmlns="http://www.w3.org/2000/svg" xmlns:xlink="http://www.w3.org/1999/xlink" x="0px" y="0px"
	 viewBox="0 0 3918.34 1255.55" style="enable-background:new 0 0 3918.34 1255.55;" xml:space="preserve">
<style type="text/css">
	.st0{fill:#1A1A1A;}
</style>
<g>
	<path class="st0" d="M804.57,702.35c0-73.3-17.28-140.69-51.93-202.35c-34.56-61.57-82.39-109.86-143.51-145.05
		c-61.02-35.1-129.77-52.66-206.08-52.66c-75.39,0-143.51,17.55-204.62,52.66c-61.02,35.2-109.4,83.76-145.05,145.87
		S0,631.59,0,706.89c0,75.39,17.73,143.78,53.38,205.35s84.03,109.95,145.05,145.05c61.11,35.11,129.23,52.66,204.62,52.66
		c102.76,0,186.98-25.37,252.64-76.3c65.66-50.92,111.22-112.95,136.69-186.25H618.32c-17.37,32.56-44.29,59.75-80.94,81.67
		c-36.65,21.92-81.39,32.83-134.32,32.83c-38.74,0-74.85-9.46-108.4-28.29c-33.65-18.82-61.39-44.47-83.21-77.12
		c-21.92-32.56-35.38-68.66-40.47-108.4h633.59V702.35z M175.52,630.59c8.19-32.56,22.37-62.66,42.74-90.13
		c20.37-27.46,46.56-49.29,78.66-65.66c32.01-16.28,67.39-24.37,106.13-24.37c39.65,0,75.57,8.1,107.58,24.37
		c32.1,16.37,58.02,38.19,77.94,65.66c19.83,27.46,32.28,57.57,37.38,90.13H175.52z"/>
	<path class="st0" d="M2166.34,29.83C2145.97,9.91,2121.59,0,2093.04,0c-27.46,0-51.38,9.91-71.75,29.83
		c-20.37,19.83-30.47,43.02-30.47,69.39c0,26.56,10.09,49.66,30.47,69.48c20.37,19.92,44.29,29.83,71.75,29.83
		c28.56,0,52.93-9.92,73.3-29.83c20.37-19.82,30.56-42.92,30.56-69.48C2196.89,72.84,2186.71,49.65,2166.34,29.83z M2010.64,320.66
		v771.01h166.42V320.66H2010.64z"/>
	<path class="st0" d="M2870.78,816.84c-14.28,40.74-39.65,75.03-76.3,103.04c-36.65,28.01-82.48,42.02-137.41,42.02
		c-41.74,0-80.12-10.73-115.31-32.11c-35.1-21.37-62.84-51.38-83.21-90.03c-20.37-38.65-30.47-82.94-30.47-132.87
		c0-50.84,10.09-95.67,30.47-134.32c20.37-38.65,48.11-68.75,83.21-90.13c35.19-21.37,73.57-32.01,115.31-32.01
		c53.93,0,98.67,13.19,134.32,39.65c35.65,26.47,61.11,59.02,76.39,97.76h170.97c-14.28-50.92-37.2-97.76-68.66-140.5
		c-31.56-42.74-73.85-77.58-126.77-104.58c-52.93-26.92-115.04-40.47-186.25-40.47c-74.3,0-141.96,17.82-203.07,53.48
		c-61.02,35.65-109.13,84.21-144.23,145.78c-35.19,61.57-52.75,130.05-52.75,205.35c0,75.39,17.55,143.51,52.75,204.62
		c35.1,61.02,83.21,109.4,144.23,145.05c61.11,35.56,128.77,53.38,203.07,53.38c73.3,0,136.69-13.73,190.07-41.19
		c53.47-27.46,96.22-63.39,128.23-107.68c32.1-44.2,54.2-92.31,66.48-144.23H2870.78z"/>
	<path class="st0" d="M3918.34,702.35c0-73.3-17.28-140.69-51.93-202.35c-34.56-61.57-82.39-109.86-143.51-145.05
		c-61.02-35.1-129.77-52.66-206.08-52.66c-75.39,0-143.51,17.55-204.62,52.66c-61.02,35.2-109.4,83.76-145.05,145.87
		c-35.65,62.11-53.38,130.77-53.38,206.08c0,75.39,17.73,143.78,53.38,205.35c35.65,61.57,84.03,109.95,145.05,145.05
		c61.11,35.11,129.23,52.66,204.62,52.66c102.76,0,186.98-25.37,252.64-76.3c65.66-50.92,111.22-112.95,136.69-186.25h-174.06
		c-17.28,32.56-44.29,59.75-80.94,81.67c-36.65,21.92-81.39,32.83-134.32,32.83c-38.74,0-74.85-9.46-108.4-28.29
		c-33.56-18.82-61.39-44.47-83.21-77.12c-21.92-32.56-35.38-68.66-40.47-108.4h633.59V702.35z M3289.29,630.59
		c8.18-32.56,22.37-62.66,42.74-90.13c20.37-27.46,46.56-49.29,78.66-65.66c32.01-16.28,67.39-24.37,106.13-24.37
		c39.65,0,75.57,8.1,107.58,24.37c32.1,16.37,58.02,38.19,77.85,65.66c19.92,27.46,32.38,57.57,37.47,90.13H3289.29z"/>
	<g>
		<path class="st0" d="M1933.71,911.06v181.98h-169.33V911.06c0-74.12-60.29-134.32-134.5-134.32c-74.12,0-134.5,60.2-134.5,134.32
			v40.65c0,113.86-62.93,217.26-164.33,269.92c-42.65,22.19-90.85,33.92-139.41,33.92c-83.48,0-164.24-35.11-221.44-96.22
			c-53.02-56.57-82.3-130.23-82.3-207.62V0h169.33v951.71c0,74.21,60.29,134.59,134.41,134.59c74.21,0,134.41-60.38,134.41-134.59
			v-40.65c0-113.77,63.02-217.17,164.42-269.83c42.74-22.19,90.94-33.83,139.41-33.83C1797.38,607.4,1933.71,743.64,1933.71,911.06z
			"/>
	</g>
</g>
</svg>
